<?xml version="1.0" encoding="UTF-8"?>
<svg id="Camada_2" data-name="Camada 2" xmlns="http://www.w3.org/2000/svg" version="1.1" viewBox="0 0 51.5 58.7">
  <defs>
    <style>
      .cls-1 {
        fill: #a38334;
        stroke-width: 0px;
      }
    </style>
  </defs>
  <g id="_07-law" data-name=" 07-law">
    <g>
      <g>
        <path class="cls-1" d="M23.3,58.7c-.2,0-.5,0-.7-.2L3.2,48.9c-.5-.3-.8-.8-.8-1.3,0-1.6.8-3.1,2.1-4,1.3-.9,3-1.1,4.5-.6l9.4,4.2h.2c-.3-.7-.5-1.3-.5-2,0-2.2,1.7-3.9,3.8-3.9h3.6c.9-1.2,3.2-2.4,9-2.4,8.6,0,9.6,2.7,9.6,3.9v12.1c0,.8-.6,1.4-1.3,1.5-3.1.4-18.4,2.4-19.6,2.4ZM5.6,46.7l18,9c1.9-.2,11.1-1.4,17.6-2.2v-10.5c-.3-.3-1.7-1.2-6.6-1.2s-6.4,1-6.6,1.2c-.1.7-.7,1.2-1.5,1.2h-4.6c-.4,0-.8.4-.8.9s.4.9.8.9h8.6v3h-8.6c-.2,0-.4,0-.6,0l-2.2,1.1c-.4.2-.9.2-1.3,0l-10-4.4c-.5-.2-1.1,0-1.6.3-.3.2-.5.4-.6.7ZM28.1,42.7h0ZM28.1,42.7h0s0,0,0,0ZM28.1,42.7h0s0,0,0,0Z"/>
        <path class="cls-1" d="M50,57.5h-7.3c-.8,0-1.5-.7-1.5-1.5v-15.8c0-.8.7-1.5,1.5-1.5h7.3c.8,0,1.5.7,1.5,1.5v15.8c0,.8-.7,1.5-1.5,1.5ZM44.2,54.5h4.3v-12.8h-4.3v12.8Z"/>
      </g>
      <g>
        <g>
          <path class="cls-1" d="M8.8,36.9c-4.8,0-8.8-3.9-8.8-8.8s.7-1.5,1.5-1.5h14.5c.8,0,1.5.7,1.5,1.5,0,4.8-3.9,8.8-8.8,8.8ZM3.2,29.7c.7,2.5,2.9,4.3,5.6,4.3s4.9-1.8,5.6-4.3H3.2Z"/>
          <path class="cls-1" d="M14.7,28.8l-5.9-13.8-5.9,13.8L.1,27.6,7.4,10.6c.2-.6.8-.9,1.4-.9s1.1.4,1.4.9l7.3,17-2.8,1.2Z"/>
          <path class="cls-1" d="M35.4,36.9c-4.8,0-8.8-3.9-8.8-8.8s.7-1.5,1.5-1.5h14.5c.8,0,1.5.7,1.5,1.5,0,4.8-3.9,8.8-8.8,8.8ZM29.9,29.7c.7,2.5,2.9,4.3,5.6,4.3s4.9-1.8,5.6-4.3h-11.1Z"/>
          <path class="cls-1" d="M41.3,28.8l-5.9-13.8-5.9,13.8-2.8-1.2,7.3-17c.2-.6.8-.9,1.4-.9s1.1.4,1.4.9l7.3,17-2.8,1.2Z"/>
        </g>
        <rect class="cls-1" x="8.8" y="9.7" width="26.7" height="3"/>
        <path class="cls-1" d="M22.1,7.8c-2.2,0-3.9-1.8-3.9-3.9S19.9,0,22.1,0s3.9,1.8,3.9,3.9-1.8,3.9-3.9,3.9ZM22.1,3c-.5,0-.9.4-.9.9s.4.9.9.9.9-.4.9-.9-.4-.9-.9-.9Z"/>
        <rect class="cls-1" x="20.6" y="6.3" width="3" height="30.3"/>
      </g>
      <path class="cls-1" d="M13.5,47.4l-2.1-2.1,9.7-9.7c.3-.3.7-.4,1.1-.4h0c.4,0,.8.2,1.1.4l4.9,4.9-2.1,2.1-3.8-3.8-8.6,8.6Z"/>
    </g>
  </g>
</svg>