<?xml version="1.0" encoding="UTF-8"?>
<svg id="Camada_2" data-name="Camada 2" xmlns="http://www.w3.org/2000/svg" version="1.1" viewBox="0 0 58.7 58.7">
  <defs>
    <style>
      .cls-1 {
        fill: #a38334;
        stroke-width: 0px;
      }
    </style>
  </defs>
  <g id="_20-auction" data-name=" 20-auction">
    <g>
      <g>
        <g>
          <path class="cls-1" d="M33,54.3c-1,0-2-.4-2.8-1.2l-12.1-12.1c-1.5-1.5-1.5-4,0-5.6t0,0c1.5-1.5,4-1.5,5.6,0l12.1,12.1c1.5,1.5,1.5,4,0,5.6s-1.8,1.2-2.8,1.2ZM20.2,37.5c-.4.4-.4,1,0,1.3l12.1,12.1c.4.4,1,.4,1.3,0,.4-.4.4-1,0-1.3l-12.1-12.1c-.4-.4-1-.4-1.3,0Z"/>
          <path class="cls-1" d="M50.3,37h0c-1.1,0-2-.4-2.8-1.2l-12.1-12.1c-1.5-1.5-1.5-4,0-5.6h0c1.5-1.5,4-1.5,5.6,0l12.1,12.1c1.5,1.5,1.5,4,0,5.6-.7.7-1.7,1.2-2.8,1.2ZM37.5,20.2c-.4.4-.4,1,0,1.3l12.1,12.1c.2.2.4.3.7.3h0c.3,0,.5,0,.7-.3.4-.4.4-1,0-1.3l-12.1-12.1c-.4-.4-1-.4-1.3,0Z"/>
          <path class="cls-1" d="M33.9,49.2c-.4,0-.8-.2-1.1-.4l-10.4-10.4c-.6-.6-.6-1.5,0-2.1l13.8-13.8c.6-.6,1.5-.6,2.1,0l10.4,10.4c.6.6.6,1.5,0,2.1l-13.8,13.8c-.3.3-.7.4-1.1.4ZM25.6,37.3l8.3,8.3,11.7-11.7-8.3-8.3-11.7,11.7Z"/>
        </g>
        <path class="cls-1" d="M41.7,47.3c-1,0-2-.4-2.8-1.2l-1.7-1.7,2.1-2.1,1.7,1.7c.4.4,1,.4,1.3,0l1.7-1.7c.2-.2.3-.4.3-.7s0-.5-.3-.7l-1.7-1.7,2.1-2.1,1.7,1.7c1.5,1.5,1.5,4,0,5.6l-1.7,1.7c-.8.8-1.8,1.2-2.8,1.2Z"/>
        <path class="cls-1" d="M53.8,58.7c-.4,0-.8-.1-1.1-.4l-11.2-11.2,2.1-2.1,10.2,10.2,1.3-1.3-10.2-10.2,2.1-2.1,11.2,11.2c.6.6.6,1.5,0,2.1l-3.5,3.5c-.3.3-.7.4-1.1.4Z"/>
      </g>
      <path class="cls-1" d="M33,58.7H3.9c-2.2,0-3.9-1.8-3.9-3.9v-2.4c0-2.2,1.8-3.9,3.9-3.9h19.4v3H3.9c-.5,0-.9.4-.9.9v2.4c0,.5.4.9.9.9h29.1v.3h1.5v1.2c0,.8-.7,1.5-1.5,1.5Z"/>
      <g>
        <g>
          <path class="cls-1" d="M13.6,13.9h-2.4c-2.2,0-3.9-1.8-3.9-3.9s1.8-3.9,3.9-3.9h2.4c2.2,0,3.9,1.8,3.9,3.9h-3c0-.5-.4-.9-.9-.9h-2.4c-.5,0-.9.4-.9.9s.4.9.9.9h2.4v3Z"/>
          <path class="cls-1" d="M13.6,18.8h-2.4c-2.2,0-3.9-1.8-3.9-3.9h3c0,.5.4.9.9.9h2.4c.5,0,.9-.4.9-.9s-.4-.9-.9-.9h-2.4v-3h2.4c2.2,0,3.9,1.8,3.9,3.9s-1.8,3.9-3.9,3.9Z"/>
          <rect class="cls-1" x="10.9" y="5.1" width="3" height="2.4"/>
          <rect class="cls-1" x="10.9" y="17.3" width="3" height="2.4"/>
        </g>
        <path class="cls-1" d="M12.4,24.8C5.6,24.8,0,19.3,0,12.4S5.6,0,12.4,0s12.4,5.6,12.4,12.4-5.6,12.4-12.4,12.4ZM12.4,3C7.2,3,3,7.2,3,12.4s4.2,9.4,9.4,9.4,9.4-4.2,9.4-9.4S17.6,3,12.4,3Z"/>
      </g>
      <path class="cls-1" d="M6.6,50h-3v-2.4c0-2.2,1.8-3.9,3.9-3.9h10.9v3H7.6c-.5,0-.9.4-.9.9v2.4Z"/>
      <rect class="cls-1" x="10.9" y="28.2" width="3" height="10.9"/>
      <rect class="cls-1" x="2.4" y="25.7" width="3" height="9.7"/>
      <rect class="cls-1" x="19.4" y="25.7" width="3" height="6.1"/>
      <path class="cls-1" d="M58.7,47.5h-3V11.8l-8.8-8.8h-23.6V0h24.2c.4,0,.8.2,1.1.4l9.7,9.7c.3.3.4.7.4,1.1v36.4Z"/>
      <path class="cls-1" d="M57.2,12.7h-9.7c-.8,0-1.5-.7-1.5-1.5V1.5h3v8.2h8.2v3Z"/>
    </g>
  </g>
</svg>