<?xml version="1.0" encoding="UTF-8"?>
<svg id="Camada_2" data-name="Camada 2" xmlns="http://www.w3.org/2000/svg" version="1.1" viewBox="0 0 56.3 58.7">
  <defs>
    <style>
      .cls-1 {
        fill: #a38334;
        stroke-width: 0px;
      }
    </style>
  </defs>
  <g id="_02-law" data-name=" 02-law">
    <g>
      <g>
        <path class="cls-1" d="M45.1,58.7H3.9c-2.2,0-3.9-1.8-3.9-3.9V11.2c0-.4.2-.8.4-1.1L10.1.4C10.4.2,10.8,0,11.2,0h33.9c2.2,0,3.9,1.8,3.9,3.9v27.9h-3V3.9c0-.5-.4-.9-.9-.9H11.8L3,11.8v43c0,.5.4.9.9.9h41.2c.5,0,.9-.4.9-.9v-10.9h3v10.9c0,2.2-1.8,3.9-3.9,3.9Z"/>
        <path class="cls-1" d="M8.8,12.7H1.5v-3h7.3c.5,0,.9-.4.9-.9V1.5h3v7.3c0,2.2-1.8,3.9-3.9,3.9Z"/>
      </g>
      <g>
        <g>
          <path class="cls-1" d="M35.4,53.9h-17c-2.2,0-3.9-1.8-3.9-3.9s1.8-3.9,3.9-3.9h17c2.2,0,3.9,1.8,3.9,3.9s-1.8,3.9-3.9,3.9ZM18.5,49c-.5,0-.9.4-.9.9s.4.9.9.9h17c.5,0,.9-.4.9-.9s-.4-.9-.9-.9h-17Z"/>
          <path class="cls-1" d="M35.4,29.7h-17c-2.2,0-3.9-1.8-3.9-3.9s1.8-3.9,3.9-3.9h17c2.2,0,3.9,1.8,3.9,3.9s-1.8,3.9-3.9,3.9ZM18.5,24.8c-.5,0-.9.4-.9.9s.4.9.9.9h17c.5,0,.9-.4.9-.9s-.4-.9-.9-.9h-17Z"/>
          <path class="cls-1" d="M34.2,49h-14.5c-.8,0-1.5-.7-1.5-1.5v-19.4c0-.8.7-1.5,1.5-1.5h14.5c.8,0,1.5.7,1.5,1.5v19.4c0,.8-.7,1.5-1.5,1.5ZM21.2,46h11.5v-16.4h-11.5v16.4Z"/>
        </g>
        <path class="cls-1" d="M36.6,43h-2.4v-3h2.4c.5,0,.9-.4.9-.9v-2.4c0-.5-.4-.9-.9-.9h-2.4v-3h2.4c2.2,0,3.9,1.8,3.9,3.9v2.4c0,2.2-1.8,3.9-3.9,3.9Z"/>
        <path class="cls-1" d="M54.8,41.8h-15.8v-3h14.2v-1.8h-14.2v-3h15.8c.8,0,1.5.7,1.5,1.5v4.8c0,.8-.7,1.5-1.5,1.5Z"/>
      </g>
      <rect class="cls-1" x="7.6" y="15.8" width="35.1" height="3"/>
      <rect class="cls-1" x="7.6" y="21.8" width="4.9" height="3"/>
      <rect class="cls-1" x="7.6" y="27.9" width="4.9" height="3"/>
      <rect class="cls-1" x="7.6" y="33.9" width="8.5" height="3"/>
      <rect class="cls-1" x="7.6" y="40" width="8.5" height="3"/>
      <rect class="cls-1" x="7.6" y="46" width="4.9" height="3"/>
    </g>
  </g>
</svg>