<svg id="direito-contratual" xmlns="http://www.w3.org/2000/svg" width="57.774" height="49.432" viewBox="0 0 57.774 49.432">
  <rect id="Ret창ngulo_30" data-name="Ret창ngulo 30" width="19.903" height="3.125" transform="translate(16.935 15.46)" fill="#a38334"/>
  <rect id="Ret창ngulo_31" data-name="Ret창ngulo 31" width="9.952" height="3.125" transform="translate(16.935 25.601)" fill="#a38334"/>
  <path id="Caminho_66" data-name="Caminho 66" d="M55.378,2.291h-32.2a8.064,8.064,0,0,0-8.055,8.055V41.9H7.428a1.562,1.562,0,0,0-1.562,1.562,8.273,8.273,0,0,0,8.264,8.263H41.983a8.272,8.272,0,0,0,8.256-8.262V12.117H62.078a1.562,1.562,0,0,0,1.562-1.562,8.272,8.272,0,0,0-8.262-8.264m-8.264,8.264V43.461a5.138,5.138,0,1,1-10.276,0A1.563,1.563,0,0,0,35.276,41.9H18.245V10.346a4.936,4.936,0,0,1,4.93-4.931H48.918a8.218,8.218,0,0,0-1.8,5.139" transform="translate(-5.866 -2.291)" fill="#a38334"/>
</svg>
