<svg xmlns="http://www.w3.org/2000/svg" xmlns:xlink="http://www.w3.org/1999/xlink" width="305.604" height="137.86" viewBox="0 0 305.604 137.86">
  <defs>
    <clipPath id="clip-path">
      <rect id="Retângulo_18" data-name="Retângulo 18" width="305.604" height="137.86" fill="none"/>
    </clipPath>
  </defs>
  <g id="logo-2" transform="translate(-808 -2813)">
    <path id="Caminho_35" data-name="Caminho 35" d="M221.877,328.406l1.72,3.871h-3.441Zm-.709-1.372-3.651,8.137H218.9l.767-1.708h4.406l.779,1.708h1.383l-3.65-8.137Z" transform="translate(675.641 2615.504)" fill="#a38334"/>
    <g id="Grupo_56" data-name="Grupo 56" transform="translate(808 2813)" clip-path="url(#clip-path)">
      <path id="Caminho_36" data-name="Caminho 36" d="M263.088,327.034a4.571,4.571,0,0,1,1.8.337,3.327,3.327,0,0,1,1.279.912,4.29,4.29,0,0,1,.738,1.273,4.458,4.458,0,0,1,.267,1.477,4.338,4.338,0,0,1-.221,1.517,4.181,4.181,0,0,1-.727,1.319,3.359,3.359,0,0,1-1.3.947,4.551,4.551,0,0,1-1.837.355h-3.08v-8.137Zm-1.79,6.882h1.79a2.575,2.575,0,0,0,2.1-.855,2.992,2.992,0,0,0,.686-2.04,3.382,3.382,0,0,0-.3-1.325,2.369,2.369,0,0,0-.924-1.012,2.869,2.869,0,0,0-1.563-.407H261.3Z" transform="translate(-157.019 -197.496)" fill="#a38334"/>
      <path id="Caminho_37" data-name="Caminho 37" d="M301.367,335.206h-1.36l-3.383-8.172h1.465l2.592,6.614,2.6-6.614h1.453Z" transform="translate(-179.132 -197.496)" fill="#a38334"/>
      <path id="Caminho_38" data-name="Caminho 38" d="M342.922,327.9a4.411,4.411,0,0,1,1.081,3,4.785,4.785,0,0,1-.261,1.587,4.3,4.3,0,0,1-.756,1.342,3.369,3.369,0,0,1-1.308.936,4.7,4.7,0,0,1-1.837.343A4.566,4.566,0,0,1,338,334.76a3.48,3.48,0,0,1-1.308-.948,4.314,4.314,0,0,1-.755-1.331,4.649,4.649,0,0,1-.261-1.563,4.2,4.2,0,0,1,1.174-3.063,4.022,4.022,0,0,1,3.011-1.2,3.879,3.879,0,0,1,3.057,1.25M337.15,332a3.156,3.156,0,0,0,.505.953,2.381,2.381,0,0,0,.9.7,3.027,3.027,0,0,0,1.284.261,2.658,2.658,0,0,0,2.151-.854,3.2,3.2,0,0,0,.721-2.134,3.706,3.706,0,0,0-.285-1.464,2.661,2.661,0,0,0-.953-1.146,2.787,2.787,0,0,0-1.61-.483,2.7,2.7,0,0,0-2.134.861,3.243,3.243,0,0,0-.761,2.232,3.686,3.686,0,0,0,.18,1.075" transform="translate(-202.718 -197.265)" fill="#a38334"/>
      <path id="Caminho_39" data-name="Caminho 39" d="M383.44,328.6a2.833,2.833,0,0,0-1.016-.644,3.308,3.308,0,0,0-1.18-.227,2.808,2.808,0,0,0-2.2.907,3.191,3.191,0,0,0-.8,2.244,3.02,3.02,0,0,0,.755,2.081,2.846,2.846,0,0,0,2.244.848,3,3,0,0,0,1.988-.72V331.44h-2.267v-1.163h3.475v3.337a4.147,4.147,0,0,1-3.2,1.418,5.076,5.076,0,0,1-1.923-.343,3.405,3.405,0,0,1-1.343-.93,4.111,4.111,0,0,1-.755-1.313,4.677,4.677,0,0,1-.255-1.563,4.426,4.426,0,0,1,1.139-3.1,4.033,4.033,0,0,1,3.139-1.25,4.118,4.118,0,0,1,3.011,1.233Z" transform="translate(-227.65 -197.194)" fill="#a38334"/>
      <path id="Caminho_40" data-name="Caminho 40" d="M421.488,333.462h-4.405l-.768,1.708h-1.383l3.65-8.137H420l3.65,8.137h-1.383Zm-2.2-5.057-1.721,3.871h3.441Z" transform="translate(-250.579 -197.496)" fill="#a38334"/>
      <path id="Caminho_41" data-name="Caminho 41" d="M460.5,327.034a4.571,4.571,0,0,1,1.8.337,3.327,3.327,0,0,1,1.279.912,4.291,4.291,0,0,1,.738,1.273,4.458,4.458,0,0,1,.267,1.477,4.338,4.338,0,0,1-.221,1.517,4.188,4.188,0,0,1-.727,1.319,3.364,3.364,0,0,1-1.3.947,4.551,4.551,0,0,1-1.837.355h-3.08v-8.137Zm-1.79,6.882h1.79a2.575,2.575,0,0,0,2.1-.855,2.992,2.992,0,0,0,.686-2.04,3.382,3.382,0,0,0-.3-1.325,2.369,2.369,0,0,0-.924-1.012,2.87,2.87,0,0,0-1.563-.407h-1.79Z" transform="translate(-276.237 -197.496)" fill="#a38334"/>
      <path id="Caminho_42" data-name="Caminho 42" d="M503.043,327.9a4.411,4.411,0,0,1,1.081,3,4.784,4.784,0,0,1-.261,1.587,4.286,4.286,0,0,1-.756,1.342,3.367,3.367,0,0,1-1.307.936,4.7,4.7,0,0,1-1.837.343,4.564,4.564,0,0,1-1.836-.354,3.48,3.48,0,0,1-1.308-.948,4.323,4.323,0,0,1-.755-1.331,4.659,4.659,0,0,1-.261-1.563,4.2,4.2,0,0,1,1.174-3.063,4.021,4.021,0,0,1,3.011-1.2,3.879,3.879,0,0,1,3.057,1.25m-5.772,4.1a3.148,3.148,0,0,0,.505.953,2.383,2.383,0,0,0,.9.7,3.029,3.029,0,0,0,1.285.261,2.657,2.657,0,0,0,2.15-.854,3.2,3.2,0,0,0,.721-2.134,3.712,3.712,0,0,0-.285-1.464,2.662,2.662,0,0,0-.953-1.146,2.786,2.786,0,0,0-1.61-.483,2.7,2.7,0,0,0-2.133.861,3.243,3.243,0,0,0-.761,2.232,3.712,3.712,0,0,0,.18,1.075" transform="translate(-299.415 -197.265)" fill="#a38334"/>
      <path id="Caminho_43" data-name="Caminho 43" d="M542.2,328.483a1.92,1.92,0,0,0-.831-.657,3.021,3.021,0,0,0-1.18-.25,2.5,2.5,0,0,0-1.36.331,1.018,1.018,0,0,0-.523.9.811.811,0,0,0,.505.778,5.271,5.271,0,0,0,1.471.385,10.181,10.181,0,0,1,1.232.244,4.632,4.632,0,0,1,1.011.413,1.882,1.882,0,0,1,.762.744,2.277,2.277,0,0,1,.261,1.122,2.134,2.134,0,0,1-.505,1.453,2.739,2.739,0,0,1-1.232.82,5.22,5.22,0,0,1-1.634.238,3.635,3.635,0,0,1-3.5-1.847l.976-.651a2.723,2.723,0,0,0,2.535,1.336,3.862,3.862,0,0,0,.976-.116,1.661,1.661,0,0,0,.762-.436,1.083,1.083,0,0,0,.319-.8.97.97,0,0,0-.552-.913,4.532,4.532,0,0,0-1.529-.425,9.326,9.326,0,0,1-.959-.163,5.9,5.9,0,0,1-.843-.267,2.37,2.37,0,0,1-.715-.418,1.919,1.919,0,0,1-.454-.633,2.1,2.1,0,0,1-.18-.89,2.024,2.024,0,0,1,1.023-1.8,3.874,3.874,0,0,1,1-.4,4.571,4.571,0,0,1,1.116-.134,3.3,3.3,0,0,1,3.034,1.371Z" transform="translate(-324.099 -197.143)" fill="#a38334"/>
      <path id="Caminho_44" data-name="Caminho 44" d="M301.218,0V47.072h-.071v.011H316V61.874h37.256v-14.8h.071v-2.7h-13.7L351.727,32.28h13.761V47.072h-.072v26.9H303.844V55.3H306.7l2.7-2.7h-8.252V76.666h66.966V47.072h.071V29.583H353.329V14.791H316.073V32.28h13.7L317.675,44.374h-13.76V2.7h61.572V21.365h-2.63l-2.7,2.7h8.023V0Zm17.575,47.072,17.489-17.489H318.771V17.488h31.862V29.56L333.121,47.072h-.061l-.011.011h17.512V59.177H318.7V47.105l.033-.033Z" transform="translate(-181.863)" fill="#a38334"/>
      <path id="Caminho_45" data-name="Caminho 45" d="M3.611,255.75A17.994,17.994,0,0,1,0,254.134a31.387,31.387,0,0,0,.347-5.208,9.732,9.732,0,0,1,2.535-.278,7.473,7.473,0,0,0,1.285,4.305,4.411,4.411,0,0,0,3.612,1.354,4.533,4.533,0,0,0,3.107-.92,3.012,3.012,0,0,0,1.024-2.344,3.151,3.151,0,0,0-.642-1.98,5.616,5.616,0,0,0-1.615-1.407q-.972-.573-2.6-1.336A27.944,27.944,0,0,1,3.611,244.5a7.483,7.483,0,0,1-2.24-2.274,6.39,6.39,0,0,1-.92-3.542,5.928,5.928,0,0,1,2.014-4.791,8.065,8.065,0,0,1,5.382-1.7,13.984,13.984,0,0,1,3.472.434,9.087,9.087,0,0,1,2.708,1.094,37.31,37.31,0,0,0,.209,4.757,5.646,5.646,0,0,1-2.535.451,7.95,7.95,0,0,0-1.424-3.82,3.325,3.325,0,0,0-2.6-1.042,3.967,3.967,0,0,0-2.621.8,2.779,2.779,0,0,0-.955,2.257,3.285,3.285,0,0,0,.677,2.083,5.875,5.875,0,0,0,1.684,1.458q1.007.591,2.743,1.424a33.868,33.868,0,0,1,3.437,1.84,7.532,7.532,0,0,1,2.24,2.205,5.879,5.879,0,0,1,.921,3.351,6.6,6.6,0,0,1-.921,3.472,6.372,6.372,0,0,1-2.8,2.431,10.6,10.6,0,0,1-4.618.9,12.986,12.986,0,0,1-3.854-.538" transform="translate(0 -140.22)" fill="#e8e8e8"/>
      <path id="Caminho_46" data-name="Caminho 46" d="M68.62,256.237q-1.354-.1-4.375-.1-3.229,0-4.549.1a4.87,4.87,0,0,1,.278-1.84,3.3,3.3,0,0,0,1.267-.347.8.8,0,0,0,.4-.729,4.451,4.451,0,0,0-.486-1.6l-1.146-2.709q-5.382,0-8.82.174l-.694,1.805a5.442,5.442,0,0,0-.452,1.91,1.331,1.331,0,0,0,.417,1.059,2.186,2.186,0,0,0,1.285.434,5.8,5.8,0,0,1,.278,1.84q-1.181-.1-3.542-.1-1.007,0-2.986.1a5.089,5.089,0,0,1,.278-1.805,2.148,2.148,0,0,0,1.406-.886,16.718,16.718,0,0,0,1.372-2.8l7.222-18.125a7.378,7.378,0,0,1,1.7-.174l8.125,18.4q.659,1.457,1.076,2.17a3.734,3.734,0,0,0,.782,1.007,1.779,1.779,0,0,0,.92.365,6.574,6.574,0,0,1,.243,1.84m-9.375-8.993-2.257-5.278a39.6,39.6,0,0,1-1.6-4.132q-.626,2.015-1.424,4.132l-2.014,5.278Z" transform="translate(-27.475 -140.378)" fill="#e8e8e8"/>
      <path id="Caminho_47" data-name="Caminho 47" d="M132.235,232.715a7.361,7.361,0,0,1-.173,1.841,1.833,1.833,0,0,0-1.268.468,2.787,2.787,0,0,0-.625,1.476,17.658,17.658,0,0,0-.191,2.987v16.806a6.708,6.708,0,0,1-1.979.242l-13.646-18.021v10.972a17.031,17.031,0,0,0,.208,3.073,2.544,2.544,0,0,0,.747,1.51,2.474,2.474,0,0,0,1.545.486,6.175,6.175,0,0,1,.208,1.84q-1.562-.1-3.646-.1-2.5,0-3.75.1a7.581,7.581,0,0,1,.173-1.84,2.477,2.477,0,0,0,1.545-.486,2.62,2.62,0,0,0,.764-1.51,15.754,15.754,0,0,0,.226-3.073V235.91l-.243-.312a2.743,2.743,0,0,0-.886-.764,4.2,4.2,0,0,0-1.406-.277,8.116,8.116,0,0,1-.173-1.841q1.11.105,3.125.1,1.7,0,2.778-.1l12.4,16.6v-9.826a16.163,16.163,0,0,0-.208-3,2.434,2.434,0,0,0-.746-1.459,2.621,2.621,0,0,0-1.58-.468,8.784,8.784,0,0,1-.208-1.841q1.528.105,3.611.1,2.049,0,3.4-.1" transform="translate(-66.227 -140.537)" fill="#e8e8e8"/>
      <path id="Caminho_48" data-name="Caminho 48" d="M178.46,254.742a10.523,10.523,0,0,1-3.993-4.323,13.655,13.655,0,0,1-1.424-6.32,12.322,12.322,0,0,1,1.632-6.51,10.549,10.549,0,0,1,4.306-4.045,12.577,12.577,0,0,1,5.764-1.354,16.49,16.49,0,0,1,3.906.452,19.779,19.779,0,0,1,3.767,1.354,29.723,29.723,0,0,0-.382,5.382,5.627,5.627,0,0,1-2.291.347q-.07-3.229-1.268-4.5a4.574,4.574,0,0,0-3.49-1.268,6.233,6.233,0,0,0-5.521,2.638,11.357,11.357,0,0,0-1.806,6.563,14.66,14.66,0,0,0,.972,5.486,8.591,8.591,0,0,0,2.847,3.82,7.316,7.316,0,0,0,4.479,1.389,10.7,10.7,0,0,0,3.125-.487,12.935,12.935,0,0,0,3.056-1.389,2.1,2.1,0,0,1,.452.591,2.71,2.71,0,0,1,.277.694,14.2,14.2,0,0,1-3.923,2.274,13.244,13.244,0,0,1-4.619.747,11.163,11.163,0,0,1-5.868-1.545" transform="translate(-104.501 -140.219)" fill="#e8e8e8"/>
      <path id="Caminho_49" data-name="Caminho 49" d="M251.942,253.271a1.56,1.56,0,0,0,.694.938,3.524,3.524,0,0,0,1.458.347,6.373,6.373,0,0,1,.208,1.84q-1.91-.1-4.584-.1-2.882,0-4.861.1a6.32,6.32,0,0,1,.243-1.84,3.527,3.527,0,0,0,1.458-.347,1.5,1.5,0,0,0,.677-.938,7.654,7.654,0,0,0,.191-1.979v-6.146q-7.118,0-9.514.244v5.9a7.032,7.032,0,0,0,.208,1.979,1.56,1.56,0,0,0,.695.938,3.522,3.522,0,0,0,1.458.347,5.756,5.756,0,0,1,.208,1.84q-1.91-.1-4.549-.1-2.917,0-4.861.1a6.374,6.374,0,0,1,.208-1.84,3.529,3.529,0,0,0,1.458-.347,1.561,1.561,0,0,0,.694-.938,7.013,7.013,0,0,0,.208-1.979V237.785a6.858,6.858,0,0,0-.208-1.945,1.562,1.562,0,0,0-.694-.937,3.535,3.535,0,0,0-1.458-.347,6.824,6.824,0,0,1-.208-1.841q1.875.1,4.757.1,2.569,0,4.653-.1c0,.347-.012.683-.034,1.007a2.8,2.8,0,0,1-.174.834,3.528,3.528,0,0,0-1.458.347,1.561,1.561,0,0,0-.695.937,6.877,6.877,0,0,0-.208,1.945v5.521h9.514v-5.521a7.485,7.485,0,0,0-.191-1.945,1.5,1.5,0,0,0-.677-.937,3.533,3.533,0,0,0-1.458-.347,5.7,5.7,0,0,1-.243-1.841q1.875.1,4.792.1,2.569,0,4.653-.1a6.159,6.159,0,0,1-.208,1.841,3.53,3.53,0,0,0-1.458.347,1.56,1.56,0,0,0-.694.937,6.86,6.86,0,0,0-.208,1.945v13.507a7.014,7.014,0,0,0,.208,1.979" transform="translate(-139.546 -140.537)" fill="#e8e8e8"/>
      <path id="Caminho_50" data-name="Caminho 50" d="M316.75,250.91a26.4,26.4,0,0,0-1.076,5.452q-3.125-.07-7.882-.069-6.91,0-9.479.1a5.758,5.758,0,0,1,.208-1.84,3.528,3.528,0,0,0,1.458-.347,1.592,1.592,0,0,0,.694-1.007,8.535,8.535,0,0,0,.208-2.187V237.785a6.86,6.86,0,0,0-.208-1.945,1.54,1.54,0,0,0-.712-.937,3.689,3.689,0,0,0-1.475-.347,7.323,7.323,0,0,1-.173-1.841q2.361.105,6.806.1,5.59,0,9.653-.1a51.505,51.505,0,0,0,.729,5.7,4.1,4.1,0,0,1-2.083.451,4.983,4.983,0,0,0-1.389-3.143q-1.181-1.163-4.062-1.163h-2.813v9.063h1.6a4.865,4.865,0,0,0,2.778-.573,2.653,2.653,0,0,0,.8-2.17,6.548,6.548,0,0,1,2.049-.278q-.1,1.7-.1,3.854,0,2.327.1,4.063a7.254,7.254,0,0,1-1.979-.209,3.121,3.121,0,0,0-.9-2.292,4.673,4.673,0,0,0-2.743-.59h-1.6v5.556a6.764,6.764,0,0,0,.26,2.152,1.694,1.694,0,0,0,.9,1.024,4.712,4.712,0,0,0,1.893.295h.313a8.548,8.548,0,0,0,3.212-.486,3.85,3.85,0,0,0,1.771-1.389,10.789,10.789,0,0,0,1.163-2.6,3.972,3.972,0,0,1,2.083.937" transform="translate(-180.151 -140.537)" fill="#e8e8e8"/>
      <path id="Caminho_51" data-name="Caminho 51" d="M356.448,255.75a18,18,0,0,1-3.611-1.615,31.386,31.386,0,0,0,.347-5.208,9.731,9.731,0,0,1,2.535-.278A7.473,7.473,0,0,0,357,252.954a4.411,4.411,0,0,0,3.612,1.354,4.533,4.533,0,0,0,3.107-.92,3.012,3.012,0,0,0,1.024-2.344,3.151,3.151,0,0,0-.642-1.98,5.616,5.616,0,0,0-1.615-1.407q-.972-.573-2.6-1.336a27.942,27.942,0,0,1-3.438-1.823,7.483,7.483,0,0,1-2.24-2.274,6.39,6.39,0,0,1-.92-3.542,5.928,5.928,0,0,1,2.014-4.791,8.065,8.065,0,0,1,5.382-1.7,13.984,13.984,0,0,1,3.472.434,9.087,9.087,0,0,1,2.708,1.094,37.307,37.307,0,0,0,.209,4.757,5.646,5.646,0,0,1-2.535.451,7.95,7.95,0,0,0-1.424-3.82,3.325,3.325,0,0,0-2.6-1.042,3.967,3.967,0,0,0-2.621.8,2.779,2.779,0,0,0-.955,2.257,3.285,3.285,0,0,0,.677,2.083,5.875,5.875,0,0,0,1.684,1.458q1.007.591,2.743,1.424a33.862,33.862,0,0,1,3.437,1.84,7.532,7.532,0,0,1,2.24,2.205,5.879,5.879,0,0,1,.921,3.351,6.6,6.6,0,0,1-.921,3.472,6.372,6.372,0,0,1-2.8,2.431,10.6,10.6,0,0,1-4.618.9,12.986,12.986,0,0,1-3.854-.538" transform="translate(-213.079 -140.22)" fill="#e8e8e8"/>
      <path id="Caminho_52" data-name="Caminho 52" d="M527.84,250.756q-.278,1.181-.486,2.76a28.056,28.056,0,0,0-.243,2.934q-3.229-.1-9.028-.1-5.313,0-7.708.1a2.974,2.974,0,0,1-.417-1.493l.59-.972q2.951-4.9,5.938-9.931t5.451-9.445h-4.062a6.372,6.372,0,0,0-2.344.347,2.9,2.9,0,0,0-1.406,1.319,9.994,9.994,0,0,0-.938,2.917,5.572,5.572,0,0,1-2.465-.382,18.158,18.158,0,0,0,.538-2.847,27.223,27.223,0,0,0,.191-3.16q2.986.07,8.368.069,4.584,0,6.945-.069a2.937,2.937,0,0,1,.486,1.493q-5.452,10.035-11.841,20.278h4.2a10.927,10.927,0,0,0,3.143-.347,3.069,3.069,0,0,0,1.7-1.285,8.925,8.925,0,0,0,1.024-2.882,5.244,5.244,0,0,1,2.361.694" transform="translate(-307.965 -140.591)" fill="#e8e8e8"/>
      <path id="Caminho_53" data-name="Caminho 53" d="M566.493,235.839a1.563,1.563,0,0,0-.694-.937,3.542,3.542,0,0,0-1.458-.347,6.826,6.826,0,0,1-.208-1.841q1.875.105,4.757.1,2.569,0,4.653-.1,0,.521-.034,1.007a2.8,2.8,0,0,1-.174.834,3.535,3.535,0,0,0-1.458.347,1.559,1.559,0,0,0-.694.937,6.858,6.858,0,0,0-.208,1.945v13.507a7.016,7.016,0,0,0,.208,1.98,1.558,1.558,0,0,0,.694.938,3.522,3.522,0,0,0,1.458.347,5.753,5.753,0,0,1,.208,1.84q-1.91-.1-4.549-.1-2.917,0-4.861.1a6.369,6.369,0,0,1,.208-1.84,3.529,3.529,0,0,0,1.458-.347,1.561,1.561,0,0,0,.694-.938,7.016,7.016,0,0,0,.208-1.98V237.784a6.858,6.858,0,0,0-.208-1.945" transform="translate(-340.68 -140.536)" fill="#e8e8e8"/>
      <path id="Caminho_54" data-name="Caminho 54" d="M615.386,235.128q3.628,2.379,3.628,8.837,0,5.139-2.274,7.865a10.76,10.76,0,0,1-5.156,3.593,19.428,19.428,0,0,1-5.625.869q-6.91,0-9.479.1a5.757,5.757,0,0,1,.208-1.84,3.672,3.672,0,0,0,1.475-.347,1.577,1.577,0,0,0,.712-1.025,8.558,8.558,0,0,0,.208-2.17v-13.23a6.856,6.856,0,0,0-.208-1.944,1.539,1.539,0,0,0-.712-.937,3.684,3.684,0,0,0-1.475-.347,7.318,7.318,0,0,1-.174-1.841q1.84.105,5.521.1,1.25,0,1.875-.034l2.084-.035a16.849,16.849,0,0,1,9.393,2.378m-3.125,17.119q2.2-2.2,2.2-7.726,0-5.243-2.517-7.674a8.76,8.76,0,0,0-6.337-2.43,6.527,6.527,0,0,0-2.257.347V250.98a7.2,7.2,0,0,0,.243,2.152,1.635,1.635,0,0,0,.885,1.024,4.712,4.712,0,0,0,1.893.295,7.955,7.955,0,0,0,5.886-2.2" transform="translate(-360.215 -140.537)" fill="#e8e8e8"/>
      <path id="Caminho_55" data-name="Caminho 55" d="M679.641,235.128q3.628,2.379,3.628,8.837,0,5.139-2.274,7.865a10.761,10.761,0,0,1-5.156,3.593,19.433,19.433,0,0,1-5.625.869q-6.91,0-9.479.1a5.757,5.757,0,0,1,.208-1.84,3.672,3.672,0,0,0,1.475-.347,1.577,1.577,0,0,0,.712-1.025,8.554,8.554,0,0,0,.209-2.17v-13.23a6.852,6.852,0,0,0-.209-1.944,1.539,1.539,0,0,0-.712-.937,3.684,3.684,0,0,0-1.475-.347,7.322,7.322,0,0,1-.174-1.841q1.84.105,5.521.1,1.25,0,1.875-.034l2.083-.035a16.849,16.849,0,0,1,9.393,2.378m-3.125,17.119q2.2-2.2,2.2-7.726,0-5.243-2.517-7.674a8.76,8.76,0,0,0-6.337-2.43,6.527,6.527,0,0,0-2.257.347V250.98a7.217,7.217,0,0,0,.243,2.152,1.636,1.636,0,0,0,.885,1.024,4.711,4.711,0,0,0,1.893.295,7.955,7.955,0,0,0,5.886-2.2" transform="translate(-399.018 -140.537)" fill="#e8e8e8"/>
      <path id="Caminho_56" data-name="Caminho 56" d="M743.427,250.91a26.4,26.4,0,0,0-1.076,5.452q-3.125-.07-7.882-.069-6.91,0-9.479.1a5.757,5.757,0,0,1,.208-1.84,3.528,3.528,0,0,0,1.458-.347,1.592,1.592,0,0,0,.694-1.007,8.533,8.533,0,0,0,.208-2.187V237.785a6.858,6.858,0,0,0-.208-1.945,1.539,1.539,0,0,0-.712-.937,3.689,3.689,0,0,0-1.475-.347,7.328,7.328,0,0,1-.173-1.841q2.361.105,6.806.1,5.59,0,9.653-.1a51.509,51.509,0,0,0,.729,5.7,4.1,4.1,0,0,1-2.083.451,4.983,4.983,0,0,0-1.389-3.143q-1.181-1.163-4.062-1.163h-2.813v9.063h1.6a4.865,4.865,0,0,0,2.778-.573,2.652,2.652,0,0,0,.8-2.17,6.548,6.548,0,0,1,2.049-.278q-.1,1.7-.1,3.854,0,2.327.1,4.063a7.254,7.254,0,0,1-1.979-.209,3.121,3.121,0,0,0-.9-2.292,4.673,4.673,0,0,0-2.743-.59h-1.6v5.556a6.765,6.765,0,0,0,.26,2.152,1.694,1.694,0,0,0,.9,1.024,4.712,4.712,0,0,0,1.893.295h.313a8.548,8.548,0,0,0,3.212-.486,3.848,3.848,0,0,0,1.771-1.389,10.789,10.789,0,0,0,1.163-2.6,3.972,3.972,0,0,1,2.083.937" transform="translate(-437.822 -140.537)" fill="#e8e8e8"/>
      <path id="Caminho_57" data-name="Caminho 57" d="M418.02,250.134a5.888,5.888,0,0,0,2.117,4.744c1.415,1.182,3.58,1.78,6.433,1.78a13.281,13.281,0,0,0,4.263-.621,10.862,10.862,0,0,0,3.453-1.993l.131-.109.12.12c.841.841,1.682,1.711,2.5,2.585a29.208,29.208,0,0,1,3.161-.432c1.259-.114,2.339-.175,3.213-.181a9.328,9.328,0,0,0,.309-2.52,10.384,10.384,0,0,1-2.711-.407,8.1,8.1,0,0,1-2.169-1.289l-1.438-1.189.09-.139c.711-1.095,1.231-1.953,1.545-2.552s.648-1.343,1-2.234a5.606,5.606,0,0,1,1.08-1.754,4.319,4.319,0,0,1,1.773-.848,8.753,8.753,0,0,0,.194-1.727c-1.091.053-2.375.08-3.82.08-1.771,0-3.174-.027-4.178-.079a7.663,7.663,0,0,0,.315,1.71,6.421,6.421,0,0,1,2.063.589,1.35,1.35,0,0,1,.724,1.242,4.143,4.143,0,0,1-.539,1.887c-.35.669-.845,1.493-1.473,2.448l-.12.184-.161-.149c-2.43-2.251-4.676-4.512-6.675-6.721a18.5,18.5,0,0,1-2.164-2.916,4.755,4.755,0,0,1-.677-2.3,2.29,2.29,0,0,1,.764-1.853,3.15,3.15,0,0,1,2.078-.629,2.975,2.975,0,0,1,2.465,1.06,5.823,5.823,0,0,1,.993,3.036,11.417,11.417,0,0,0,2.742-.312c-.023-.382-.035-.9-.035-1.572a18.833,18.833,0,0,1,.246-3.263,16.124,16.124,0,0,0-5.959-1.01c-2.678,0-4.68.465-5.948,1.384a4.348,4.348,0,0,0-1.882,3.7,8.886,8.886,0,0,0,1.859,4.848l.129.187-.209.089a10.892,10.892,0,0,0-4.163,2.9,6.4,6.4,0,0,0-1.443,4.226m5.258-3.9a6.677,6.677,0,0,1,1.5-1.784l.143-.122.12.144c.626.745,1.184,1.379,1.659,1.883.744.8,2.469,2.529,5.128,5.128l1.1,1.1-.172.128a7.447,7.447,0,0,1-4.479,1.613,5.355,5.355,0,0,1-4.006-1.587,5.651,5.651,0,0,1-1.538-4.092,4.894,4.894,0,0,1,.541-2.409" transform="translate(-252.443 -140.591)" fill="#e8e8e8"/>
    </g>
  </g>
</svg>
