<svg xmlns="http://www.w3.org/2000/svg" width="51.082" height="51.079" viewBox="0 0 51.082 51.079">
  <path id="missao" d="M327.308,49.5,315.6,28.22a1.113,1.113,0,0,0-.96-.55,1.064,1.064,0,0,0-.929.6l-4.056,8.388L297.64,14.626V10.642h11.705a1.065,1.065,0,0,0,.753-1.817l-3.5-3.5,3.505-3.5A1.065,1.065,0,0,0,309.345,0H296.576a1.065,1.065,0,0,0-1.064,1.064V14.626l-19.025,34.88a1.064,1.064,0,0,0,.933,1.574h48.952a1.066,1.066,0,0,0,.935-1.576M296.576,17.121l5.445,9.984-2.138,2.136-2.456-3.274a1.1,1.1,0,0,0-1.7,0l-2.456,3.274L291.131,27.1Z" transform="translate(-276.358 -0.001)" fill="#a38334"/>
</svg>
