<svg id="direito-societario" xmlns="http://www.w3.org/2000/svg" width="67.938" height="55.734" viewBox="0 0 67.938 55.734">
  <path id="Caminho_58" data-name="Caminho 58" d="M38.8,228.863l-3.332-.285a1.636,1.636,0,0,1-1.017-.475l-6.577-6.6,2.312-2.3,6.155,6.178,2.737.235Z" transform="translate(-9.681 -217.471)" fill="#a38334"/>
  <path id="Caminho_59" data-name="Caminho 59" d="M48.976,284.712c-.161,0-.322-.006-.483-.016a6.95,6.95,0,0,1-4.846-2.419l2.477-2.124a3.676,3.676,0,0,0,2.59,1.287,2.969,2.969,0,0,0,1.853-.4l15.469-12.958a2.305,2.305,0,0,0,.449-1.352,2.354,2.354,0,0,0-.266-1.481L63.946,262.8c-.037-.027-.073-.057-.108-.089a1.649,1.649,0,0,1-.428-1.822c-.007-.159-.115-.892-1.337-2.316l-3.53-4.122,2.479-2.123,3.529,4.121c1.7,1.978,2.135,3.467,2.121,4.489l1.985,2.141a5.328,5.328,0,0,1,1.084,3.9,5.232,5.232,0,0,1-1.595,3.591L52.678,283.534a5.838,5.838,0,0,1-3.7,1.179M63.544,260.62a1.282,1.282,0,0,0-.1.191,1.711,1.711,0,0,1,.1-.191" transform="translate(-15.158 -228.978)" fill="#a38334"/>
  <rect id="Retângulo_19" data-name="Retângulo 19" width="3.264" height="14.285" transform="matrix(0.72, -0.694, 0.694, 0.72, 0, 19.018)" fill="#a38334"/>
  <rect id="Retângulo_20" data-name="Retângulo 20" width="3.263" height="5.616" transform="translate(38.718 44.215) rotate(-43.111)" fill="#a38334"/>
  <rect id="Retângulo_21" data-name="Retângulo 21" width="3.264" height="5.399" transform="translate(44.15 39.847) rotate(-45.98)" fill="#a38334"/>
  <path id="Caminho_60" data-name="Caminho 60" d="M34.1,285.221a4.752,4.752,0,0,1-3.471-1.694L17.967,269.3c-1.645-1.85-1.747-4.356-.231-5.707l3.088-2.749c1.52-1.348,4-.956,5.641.89l12.661,14.228a4.833,4.833,0,0,1,1.294,3.428,3.264,3.264,0,0,1-1.065,2.276l-3.086,2.75a3.224,3.224,0,0,1-2.173.8M23,263.312a.2.2,0,0,0-.058.007l-3.034,2.716a1.754,1.754,0,0,0,.5,1.1l12.659,14.223h0a1.432,1.432,0,0,0,1.087.591l3.035-2.718a1.752,1.752,0,0,0-.5-1.1L24.027,263.908a1.61,1.61,0,0,0-1.028-.6" transform="translate(-5.787 -231.658)" fill="#a38334"/>
  <rect id="Retângulo_22" data-name="Retângulo 22" width="7.212" height="3.263" transform="translate(14.828 37.827) rotate(-41.675)" fill="#a38334"/>
  <rect id="Retângulo_23" data-name="Retângulo 23" width="7.214" height="3.263" transform="translate(19.023 42.542) rotate(-41.675)" fill="#a38334"/>
  <rect id="Retângulo_24" data-name="Retângulo 24" width="7.212" height="3.263" transform="matrix(0.747, -0.665, 0.665, 0.747, 23.217, 47.255)" fill="#a38334"/>
  <path id="Caminho_61" data-name="Caminho 61" d="M36.88,247.966a8.151,8.151,0,0,1-5.951-3.094,1.631,1.631,0,0,1-.268-1.529l2.576-7.721a1.635,1.635,0,0,1,.537-.765c13.853-10.933,14.733-11.127,15.157-11.221a6.875,6.875,0,0,1,4.256.563l8.107-7.647,2.239,2.374L54.6,227.354a1.631,1.631,0,0,1-1.92.234,4.836,4.836,0,0,0-2.895-.793c-1.343.781-8.544,6.334-13.6,10.322l-2.11,6.325c.824.741,2.422,1.8,4.147.918.595-.306.941-.9,2.052-2.935l.07-.128a1.621,1.621,0,0,1,1.575-.842,36.122,36.122,0,0,0,9.757-.772c1.858-.346,2.792-.519,3.461.491l-2.722,1.8a1.476,1.476,0,0,0,1.206.69c-.176.008-.8.123-1.348.227a41.732,41.732,0,0,1-9.567.885c-1.006,1.813-1.66,2.8-2.992,3.485a6.134,6.134,0,0,1-2.826.7" transform="translate(-10.619 -216.552)" fill="#a38334"/>
  <path id="Caminho_62" data-name="Caminho 62" d="M80.55,261.335,78.3,258.973l3.005-2.867a3.572,3.572,0,0,0,1.04-3.806,1.632,1.632,0,0,1,.443-1.659l10.107-9.521,2.237,2.375L85.7,252.379a6.878,6.878,0,0,1-2.12,6.064Z" transform="translate(-27.192 -225.084)" fill="#a38334"/>
  <rect id="Retângulo_25" data-name="Retângulo 25" width="6.101" height="3.264" transform="matrix(0.936, -0.351, 0.351, 0.936, 42.014, 23.041)" fill="#a38334"/>
  <rect id="Retângulo_26" data-name="Retângulo 26" width="25.081" height="3.263" transform="translate(4.976 22.467) rotate(-45)" fill="#a38334"/>
  <rect id="Retângulo_27" data-name="Retângulo 27" width="3.263" height="21.948" transform="translate(46.003 6.781) rotate(-45)" fill="#a38334"/>
</svg>
