<svg xmlns="http://www.w3.org/2000/svg" xmlns:xlink="http://www.w3.org/1999/xlink" width="298" height="330" viewBox="0 0 298 330">
  <defs>
    <clipPath id="clip-path">
      <rect id="Retângulo_192" data-name="Retângulo 192" width="64.707" height="48.429" fill="#818181"/>
    </clipPath>
  </defs>
  <g id="img" transform="translate(-455 -2095)">
    <path id="Caminho_67" data-name="Caminho 67" d="M0,0H298V330H0Z" transform="translate(455 2095)" fill="#e8e8e8"/>
    <g id="Grupo_93" data-name="Grupo 93" transform="translate(572 2236)" opacity="0.36">
      <g id="Grupo_381" data-name="Grupo 381" transform="translate(0 0)" clip-path="url(#clip-path)">
        <path id="Caminho_199" data-name="Caminho 199" d="M60.211,0H4.5A4.5,4.5,0,0,0,0,4.5V43.932a4.5,4.5,0,0,0,4.5,4.5H60.211a4.5,4.5,0,0,0,4.5-4.5V4.5a4.5,4.5,0,0,0-4.5-4.5m-.669,29.05L49.036,21.2a3.891,3.891,0,0,0-4.794.106L31.349,31.859a4.434,4.434,0,0,1-5.448.133l-6.7-4.961a3.742,3.742,0,0,0-4.539.066L5.18,34.551a.74.74,0,0,1-1.2-.582V5.283A1.314,1.314,0,0,1,5.3,3.969H59.412a1.314,1.314,0,0,1,1.314,1.314V28.457a.741.741,0,0,1-1.184.593" transform="translate(0 0)" fill="#818181"/>
        <path id="Caminho_200" data-name="Caminho 200" d="M25.9,17.435a6.253,6.253,0,1,0,6.253,6.253A6.253,6.253,0,0,0,25.9,17.435" transform="translate(-9.035 -8.016)" fill="#818181"/>
      </g>
    </g>
  </g>
</svg>
