<svg xmlns="http://www.w3.org/2000/svg" width="60.899" height="72.165" viewBox="0 0 60.899 72.165">
  <g id="valores" transform="translate(-1089.959 -1362.877)">
    <path id="Caminho_25" data-name="Caminho 25" d="M155,87.16l7.887,29.574L136.811,87.16Z" transform="translate(953.15 1318.199)" fill="#a38334"/>
    <path id="Caminho_26" data-name="Caminho 26" d="M155.151,91.577H136.81l12.057-12.055a2.111,2.111,0,0,1,1.494-.62h12.032Z" transform="translate(953.149 1309.558)" fill="#a38334"/>
    <path id="Caminho_27" data-name="Caminho 27" d="M164.936,91.577H147.119L156.473,78.9Z" transform="translate(963.936 1309.558)" fill="#a38334"/>
    <path id="Caminho_28" data-name="Caminho 28" d="M163.609,87.213l-7.887,29.574-7.887-29.574Z" transform="translate(964.686 1318.255)" fill="#a38334"/>
    <path id="Caminho_29" data-name="Caminho 29" d="M161.31,91.577,154.068,78.9H166.1a2.111,2.111,0,0,1,1.494.62l12.057,12.055Z" transform="translate(971.207 1309.558)" fill="#a38334"/>
    <path id="Caminho_30" data-name="Caminho 30" d="M161.713,87.213H179.9l-26.076,29.574Z" transform="translate(970.954 1318.255)" fill="#a38334"/>
    <path id="Caminho_31" data-name="Caminho 31" d="M152.77,78.445a2.112,2.112,0,0,1-2.112-2.112V68.512a2.112,2.112,0,0,1,4.224,0v7.821a2.112,2.112,0,0,1-2.112,2.112" transform="translate(967.639 1296.477)" fill="#a38334"/>
    <path id="Caminho_32" data-name="Caminho 32" d="M143.573,79.5l-3.911-6.773a2.112,2.112,0,1,1,3.659-2.112l3.911,6.773a2.112,2.112,0,1,1-3.659,2.112" transform="translate(955.838 1299.782)" fill="#a38334"/>
    <path id="Caminho_33" data-name="Caminho 33" d="M161.081,80.274a2.112,2.112,0,0,1-.774-2.885l3.911-6.773a2.113,2.113,0,0,1,3.659,2.114L163.967,79.5a2.113,2.113,0,0,1-2.885.774" transform="translate(977.44 1299.782)" fill="#a38334"/>
  </g>
</svg>
