<svg xmlns="http://www.w3.org/2000/svg" width="61.294" height="51.079" viewBox="0 0 61.294 51.079">
  <path id="visão" d="M60.4,33.241,50.514,6.964l0-.016,0,0a8.936,8.936,0,0,0-17.3,3.147V21.585h-5.11V10.092A8.94,8.94,0,0,0,10.786,6.947l0,.016L.9,33.234l0,0a14.048,14.048,0,1,0,27.2,4.95V36.91H33.2v1.277A14.045,14.045,0,1,0,60.4,33.241M14.048,47.125a8.939,8.939,0,1,1,8.938-8.938,8.946,8.946,0,0,1-8.938,8.938m33.2,0a8.946,8.946,0,1,1,8.938-8.938,8.947,8.947,0,0,1-8.938,8.938" transform="translate(0 -1.154)" fill="#a38334"/>
</svg>
